<svg width="105" height="40" viewBox="0 0 105 40" fill="none" xmlns="http://www.w3.org/2000/svg">
<path fill-rule="evenodd" clip-rule="evenodd" d="M104.849 9C104.849 13.9706 100.987 18 96.224 18C91.4605 18 87.599 13.9706 87.599 9C87.599 4.02944 91.4605 0 96.224 0C100.987 0 104.849 4.02944 104.849 9ZM100.482 8.13486L94.8505 4.87045C94.1839 4.48398 93.349 4.96501 93.349 5.73559V12.2644C93.349 13.035 94.1839 13.516 94.8505 13.1295L100.482 9.86514C101.146 9.47985 101.146 8.52015 100.482 8.13486Z" fill="#002ED1"/>
<path fill-rule="evenodd" clip-rule="evenodd" d="M4.44 20H0.864C0.56 20 0.336 19.936 0.192 19.808C0.064 19.664 0 19.44 0 19.136V3.58402C0 3.28002 0.064 3.06402 0.192 2.93602C0.336 2.79202 0.56 2.72002 0.864 2.72002H4.728C4.984 2.72002 5.192 2.77602 5.352 2.88801C5.528 3.00002 5.688 3.18402 5.832 3.44001L7.992 7.35202C8.072 7.49602 8.136 7.60002 8.184 7.66402C8.248 7.72802 8.328 7.76002 8.424 7.76002H8.64C8.736 7.76002 8.808 7.72802 8.856 7.66402C8.92 7.60002 8.992 7.49602 9.072 7.35202L11.208 3.44001C11.352 3.18402 11.504 3.00002 11.664 2.88801C11.84 2.77602 12.056 2.72002 12.312 2.72002H16.2C16.504 2.72002 16.72 2.79202 16.848 2.93602C16.992 3.06402 17.064 3.28002 17.064 3.58402V19.136C17.064 19.44 16.992 19.664 16.848 19.808C16.72 19.936 16.504 20 16.2 20H12.504C12.2 20 11.976 19.936 11.832 19.808C11.704 19.664 11.64 19.44 11.64 19.136V10.688L10.224 13.304C10.08 13.576 9.904 13.776 9.696 13.904C9.504 14.016 9.256 14.072 8.952 14.072H7.992C7.688 14.072 7.432 14.016 7.224 13.904C7.032 13.776 6.864 13.576 6.72 13.304L5.304 10.688V19.136C5.304 19.44 5.232 19.664 5.088 19.808C4.96 19.936 4.744 20 4.44 20ZM8.448 10.76C8.16 10.76 7.952 10.696 7.824 10.568C7.696 10.44 7.496 10.168 7.224 9.75202L4.296 5.28802C4.2 5.12802 4.088 5.02402 3.96 4.97602C3.832 4.91201 3.704 4.88001 3.576 4.88001H3.168C2.96 4.88001 2.8 4.94402 2.688 5.07202C2.592 5.18402 2.544 5.36802 2.544 5.62402V17.84H2.784V5.62402C2.784 5.49602 2.808 5.38402 2.856 5.28802C2.904 5.17602 3.008 5.12002 3.168 5.12002H3.528C3.64 5.12002 3.736 5.13602 3.816 5.16802C3.912 5.20002 4.008 5.29602 4.104 5.45602L7.032 9.87202C7.32 10.304 7.536 10.6 7.68 10.76C7.84 10.92 8.096 11 8.448 11C8.8 11 9.048 10.92 9.192 10.76C9.352 10.6 9.576 10.304 9.864 9.87202L12.792 5.45602C12.888 5.29602 12.976 5.20002 13.056 5.16802C13.136 5.13602 13.232 5.12002 13.344 5.12002H13.704C13.864 5.12002 13.968 5.17602 14.016 5.28802C14.08 5.38402 14.112 5.49602 14.112 5.62402V17.84H14.352V5.62402C14.352 5.36802 14.296 5.18402 14.184 5.07202C14.088 4.94402 13.928 4.88001 13.704 4.88001H13.296C13.168 4.88001 13.04 4.91201 12.912 4.97602C12.8 5.02402 12.696 5.12802 12.6 5.28802L9.672 9.75202C9.4 10.168 9.2 10.44 9.072 10.568C8.944 10.696 8.736 10.76 8.448 10.76Z" fill="#002ED1"/>
<path fill-rule="evenodd" clip-rule="evenodd" d="M22.9352 14.912V7.83202C22.9352 6.93602 23.2552 6.21602 23.8952 5.67202C24.5352 5.11202 25.7432 4.83202 27.5192 4.83202C29.2952 4.83202 30.5112 5.11202 31.1672 5.67202C31.8232 6.21602 32.1512 6.93602 32.1512 7.83202V14.912C32.1512 15.808 31.8232 16.536 31.1672 17.096C30.5112 17.64 29.2952 17.912 27.5192 17.912C25.7432 17.912 24.5352 17.64 23.8952 17.096C23.2552 16.536 22.9352 15.808 22.9352 14.912ZM25.5512 14.6C25.5512 14.92 25.6712 15.192 25.9112 15.416C26.1512 15.624 26.7032 15.728 27.5672 15.728C28.4312 15.728 28.9832 15.624 29.2232 15.416C29.4632 15.192 29.5832 14.92 29.5832 14.6V8.14402C29.5832 7.84002 29.4632 7.58402 29.2232 7.37602C28.9832 7.15202 28.4312 7.04002 27.5672 7.04002C26.7032 7.04002 26.1512 7.15202 25.9112 7.37602C25.6712 7.58402 25.5512 7.84002 25.5512 8.14402V14.6Z" fill="#002ED1"/>
<path fill-rule="evenodd" clip-rule="evenodd" d="M35.0072 15.464C35.0072 16.2 34.8952 16.872 34.6712 17.48C34.4632 18.072 34.0792 18.584 33.5192 19.016C32.9752 19.432 32.2152 19.76 31.2392 20C30.2792 20.24 29.0552 20.36 27.5672 20.36C26.0792 20.36 24.8472 20.24 23.8712 20C22.8952 19.76 22.1272 19.432 21.5672 19.016C21.0232 18.584 20.6392 18.072 20.4152 17.48C20.2072 16.872 20.1032 16.2 20.1032 15.464V7.28002C20.1032 6.54402 20.2072 5.88002 20.4152 5.28802C20.6392 4.68002 21.0232 4.16002 21.5672 3.72802C22.1272 3.29602 22.8952 2.96002 23.8712 2.72002C24.8472 2.48002 26.0792 2.36002 27.5672 2.36002C29.0552 2.36002 30.2792 2.48002 31.2392 2.72002C32.2152 2.96002 32.9752 3.29602 33.5192 3.72802C34.0792 4.16002 34.4632 4.68002 34.6712 5.28802C34.8952 5.88002 35.0072 6.54402 35.0072 7.28002V15.464ZM32.3912 14.912V7.83202C32.3912 6.87202 32.0472 6.09602 31.3592 5.50402C30.6712 4.89602 29.3912 4.59202 27.5192 4.59202C25.6472 4.59202 24.3752 4.89602 23.7032 5.50402C23.0312 6.09602 22.6952 6.87202 22.6952 7.83202V14.912C22.6952 15.872 23.0312 16.656 23.7032 17.264C24.3752 17.856 25.6472 18.152 27.5192 18.152C29.3912 18.152 30.6712 17.856 31.3592 17.264C32.0472 16.656 32.3912 15.872 32.3912 14.912Z" fill="#002ED1"/>
<path fill-rule="evenodd" clip-rule="evenodd" d="M48.2865 20H42.0465C41.7425 20 41.4865 19.944 41.2785 19.832C41.0865 19.72 40.9345 19.512 40.8225 19.208L38.4705 13.328C38.3265 12.976 38.2065 12.672 38.1105 12.416C38.0145 12.144 37.9345 11.888 37.8705 11.648C37.8065 11.408 37.7585 11.16 37.7265 10.904C37.7105 10.632 37.7025 10.304 37.7025 9.92002V3.58402C37.7025 3.28002 37.7665 3.06402 37.8945 2.93602C38.0385 2.79202 38.2625 2.72002 38.5665 2.72002H42.3825C42.6865 2.72002 42.9185 2.79202 43.0785 2.93602C43.2385 3.06402 43.3185 3.28002 43.3185 3.58402V10.208C43.3185 10.368 43.3345 10.528 43.3665 10.688C43.3985 10.848 43.4465 11.016 43.5105 11.192L44.6385 14.552C44.6865 14.712 44.7425 14.824 44.8065 14.888C44.8705 14.936 44.9665 14.96 45.0945 14.96H45.3585C45.4865 14.96 45.5825 14.936 45.6465 14.888C45.7105 14.824 45.7665 14.712 45.8145 14.552L46.9425 11.168C47.0065 10.992 47.0545 10.824 47.0865 10.664C47.1185 10.504 47.1345 10.344 47.1345 10.184V3.58402C47.1345 3.28002 47.1985 3.06402 47.3265 2.93602C47.4705 2.79202 47.6945 2.72002 47.9985 2.72002H51.7665C52.0705 2.72002 52.2865 2.79202 52.4145 2.93602C52.5585 3.06402 52.6305 3.28002 52.6305 3.58402V9.92002C52.6305 10.304 52.6145 10.632 52.5825 10.904C52.5665 11.16 52.5265 11.408 52.4625 11.648C52.3985 11.888 52.3185 12.144 52.2225 12.416C52.1265 12.672 52.0065 12.976 51.8625 13.328L49.5105 19.208C49.3985 19.512 49.2385 19.72 49.0305 19.832C48.8385 19.944 48.5905 20 48.2865 20ZM40.4145 4.88001V10.064C40.4145 10.512 40.4385 10.928 40.4865 11.312C40.5505 11.68 40.6545 12.04 40.7985 12.392L42.3825 16.232C42.5745 16.696 42.7905 17.08 43.0305 17.384C43.2705 17.688 43.6385 17.84 44.1345 17.84H46.2465C46.7425 17.84 47.1105 17.688 47.3505 17.384C47.5905 17.08 47.8065 16.696 47.9985 16.232L49.5825 12.392C49.7265 12.04 49.8225 11.68 49.8705 11.312C49.9345 10.928 49.9665 10.512 49.9665 10.064V4.88001H49.7265V10.064C49.7265 10.48 49.6945 10.88 49.6305 11.264C49.5665 11.632 49.4705 11.976 49.3425 12.296L47.7585 16.136C47.5985 16.552 47.4145 16.904 47.2065 17.192C47.0145 17.464 46.6945 17.6 46.2465 17.6H44.1345C43.6865 17.6 43.3585 17.464 43.1505 17.192C42.9585 16.904 42.7825 16.552 42.6225 16.136L41.0385 12.296C40.9105 11.976 40.8145 11.632 40.7505 11.264C40.6865 10.88 40.6545 10.48 40.6545 10.064V4.88001H40.4145Z" fill="#002ED1"/>
<path fill-rule="evenodd" clip-rule="evenodd" d="M56.0737 20C55.7697 20 55.5457 19.936 55.4017 19.808C55.2738 19.664 55.2098 19.44 55.2098 19.136V16.28C55.2098 15.976 55.2738 15.76 55.4017 15.632C55.5457 15.488 55.7697 15.416 56.0737 15.416H58.4497V7.35202H56.0737C55.7697 7.35202 55.5457 7.28802 55.4017 7.16002C55.2738 7.01602 55.2098 6.79202 55.2098 6.48802V3.58402C55.2098 3.28002 55.2738 3.06402 55.4017 2.93602C55.5457 2.79202 55.7697 2.72002 56.0737 2.72002H66.2978C66.6018 2.72002 66.8177 2.79202 66.9458 2.93602C67.0898 3.06402 67.1618 3.28002 67.1618 3.58402V6.48802C67.1618 6.79202 67.0898 7.01602 66.9458 7.16002C66.8177 7.28802 66.6018 7.35202 66.2978 7.35202H63.9697V15.416H66.2978C66.6018 15.416 66.8177 15.488 66.9458 15.632C67.0898 15.76 67.1618 15.976 67.1618 16.28V19.136C67.1618 19.44 67.0898 19.664 66.9458 19.808C66.8177 19.936 66.6018 20 66.2978 20H56.0737ZM65.0017 17.84V17.6H61.3298V5.12002H65.0017V4.88001H57.3698V5.12002H61.0897V17.6H57.3698V17.84H65.0017Z" fill="#002ED1"/>
<path fill-rule="evenodd" clip-rule="evenodd" d="M82.125 20H70.989C70.685 20 70.461 19.936 70.317 19.808C70.189 19.664 70.125 19.44 70.125 19.136V3.58402C70.125 3.28002 70.189 3.06402 70.317 2.93602C70.461 2.79202 70.685 2.72002 70.989 2.72002H82.125C82.429 2.72002 82.645 2.79202 82.773 2.93602C82.917 3.06402 82.989 3.28002 82.989 3.58402V6.39202C82.989 6.69602 82.917 6.92002 82.773 7.06402C82.645 7.19202 82.429 7.25602 82.125 7.25602H75.501V9.10402H80.181C80.485 9.10402 80.701 9.17602 80.829 9.32002C80.973 9.44802 81.045 9.66402 81.045 9.96802V12.536C81.045 12.84 80.973 13.064 80.829 13.208C80.701 13.336 80.485 13.4 80.181 13.4H75.501V15.464H82.125C82.429 15.464 82.645 15.536 82.773 15.68C82.917 15.808 82.989 16.024 82.989 16.328V19.136C82.989 19.44 82.917 19.664 82.773 19.808C82.645 19.936 82.429 20 82.125 20ZM80.829 17.6H72.981V11.384H78.885V11.144H72.981V5.12002H80.829V4.88001H72.741V17.84H80.829V17.6Z" fill="#002ED1"/>
<path fill-rule="evenodd" clip-rule="evenodd" d="M56.46 40H44.244C43.94 40 43.716 39.936 43.572 39.808C43.444 39.664 43.38 39.44 43.38 39.136V23.584C43.38 23.28 43.444 23.064 43.572 22.936C43.716 22.792 43.94 22.72 44.244 22.72H47.964C48.268 22.72 48.484 22.792 48.612 22.936C48.756 23.064 48.828 23.28 48.828 23.584V35.464H52.116V31.576C52.116 31.272 52.18 31.056 52.308 30.928C52.452 30.784 52.676 30.712 52.98 30.712H56.46C56.764 30.712 56.98 30.784 57.108 30.928C57.252 31.056 57.324 31.272 57.324 31.576V39.136C57.324 39.44 57.252 39.664 57.108 39.808C56.98 39.936 56.764 40 56.46 40ZM45.996 37.84H54.828V32.872H54.588V37.6H46.236V24.88H45.996V37.84Z" fill="#002ED1"/>
<path fill-rule="evenodd" clip-rule="evenodd" d="M60.5475 40C60.2435 40 60.0195 39.936 59.8755 39.808C59.7475 39.664 59.6835 39.44 59.6835 39.136V36.28C59.6835 35.976 59.7475 35.76 59.8755 35.632C60.0195 35.488 60.2435 35.416 60.5475 35.416H62.9235V27.352H60.5475C60.2435 27.352 60.0195 27.288 59.8755 27.16C59.7475 27.016 59.6835 26.792 59.6835 26.488V23.584C59.6835 23.28 59.7475 23.064 59.8755 22.936C60.0195 22.792 60.2435 22.72 60.5475 22.72H70.7715C71.0755 22.72 71.2915 22.792 71.4195 22.936C71.5635 23.064 71.6355 23.28 71.6355 23.584V26.488C71.6355 26.792 71.5635 27.016 71.4195 27.16C71.2915 27.288 71.0755 27.352 70.7715 27.352H68.4435V35.416H70.7715C71.0755 35.416 71.2915 35.488 71.4195 35.632C71.5635 35.76 71.6355 35.976 71.6355 36.28V39.136C71.6355 39.44 71.5635 39.664 71.4195 39.808C71.2915 39.936 71.0755 40 70.7715 40H60.5475ZM69.4755 37.84V37.6H65.8035V25.12H69.4755V24.88H61.8435V25.12H65.5635V37.6H61.8435V37.84H69.4755Z" fill="#002ED1"/>
<path fill-rule="evenodd" clip-rule="evenodd" d="M82.6147 40H75.0307C74.7267 40 74.5027 39.936 74.3587 39.808C74.2308 39.664 74.1667 39.44 74.1667 39.136V36.328C74.1667 36.024 74.2308 35.808 74.3587 35.68C74.5027 35.536 74.7267 35.464 75.0307 35.464H81.4867C81.6947 35.464 81.8467 35.4 81.9427 35.272C82.0547 35.128 82.1107 34.96 82.1107 34.768C82.1107 34.496 82.0547 34.296 81.9427 34.168C81.8467 34.04 81.6947 33.968 81.4867 33.952L77.8867 33.448C76.7667 33.288 75.8627 32.92 75.1748 32.344C74.5027 31.768 74.1667 30.808 74.1667 29.464V26.944C74.1667 25.584 74.6068 24.544 75.4867 23.824C76.3668 23.088 77.5827 22.72 79.1348 22.72H85.8548C86.1588 22.72 86.3747 22.792 86.5027 22.936C86.6468 23.064 86.7188 23.28 86.7188 23.584V26.44C86.7188 26.744 86.6468 26.968 86.5027 27.112C86.3747 27.24 86.1588 27.304 85.8548 27.304H80.2627C80.0547 27.304 79.8948 27.376 79.7828 27.52C79.6707 27.648 79.6147 27.816 79.6147 28.024C79.6147 28.232 79.6707 28.408 79.7828 28.552C79.8948 28.696 80.0547 28.776 80.2627 28.792L83.8388 29.272C84.9587 29.432 85.8627 29.8 86.5508 30.376C87.2387 30.952 87.5827 31.912 87.5827 33.256V35.776C87.5827 37.136 87.1348 38.184 86.2387 38.92C85.3587 39.64 84.1507 40 82.6147 40ZM84.5587 24.88H79.2308C78.4948 24.88 77.9027 25.088 77.4548 25.504C77.0068 25.904 76.7828 26.424 76.7828 27.064V29.032C76.7828 29.688 76.9108 30.144 77.1667 30.4C77.4388 30.64 77.7827 30.8 78.1987 30.88L83.2627 31.912C83.7107 32.008 84.0628 32.2 84.3187 32.488C84.5908 32.76 84.7268 33.272 84.7268 34.024V35.416C84.7268 36.056 84.5027 36.584 84.0547 37C83.6227 37.4 83.0387 37.6 82.3027 37.6H76.3268V37.84H82.3027C83.1188 37.84 83.7667 37.616 84.2467 37.168C84.7268 36.704 84.9668 36.12 84.9668 35.416V34.024C84.9668 33.192 84.8067 32.616 84.4867 32.296C84.1827 31.976 83.7907 31.768 83.3108 31.672L78.2467 30.64C77.8787 30.576 77.5827 30.432 77.3587 30.208C77.1348 29.984 77.0228 29.592 77.0228 29.032V27.064C77.0228 26.504 77.2227 26.04 77.6227 25.672C78.0228 25.304 78.5587 25.12 79.2308 25.12H84.5587V24.88Z" fill="#002ED1"/>
<path fill-rule="evenodd" clip-rule="evenodd" d="M98.1338 40H94.2458C93.9417 40 93.7178 39.936 93.5737 39.808C93.4457 39.664 93.3818 39.44 93.3818 39.136V27.352H89.8538C89.5498 27.352 89.3258 27.288 89.1817 27.16C89.0537 27.016 88.9897 26.792 88.9897 26.488V23.584C88.9897 23.28 89.0537 23.064 89.1817 22.936C89.3258 22.792 89.5498 22.72 89.8538 22.72H102.526C102.83 22.72 103.046 22.792 103.174 22.936C103.318 23.064 103.39 23.28 103.39 23.584V26.488C103.39 26.792 103.318 27.016 103.174 27.16C103.046 27.288 102.83 27.352 102.526 27.352H98.9977V39.136C98.9977 39.44 98.9258 39.664 98.7817 39.808C98.6537 39.936 98.4378 40 98.1338 40ZM96.0697 37.84H96.3097V25.12H101.23V24.88H91.1497V25.12H96.0697V37.84Z" fill="#002ED1"/>
</svg>
