<svg width="191" height="201" viewBox="0 0 191 201" fill="none" xmlns="http://www.w3.org/2000/svg">
<path fill-rule="evenodd" clip-rule="evenodd" d="M27.1827 74.3532H170.876V115.728C167.867 114.368 164.698 113.297 161.406 112.553V83.7927H13.8278V149.083C13.8278 161.681 24.0744 171.895 36.7142 171.895H101.87C102.617 175.177 103.691 178.335 105.056 181.334H36.7142C18.8441 181.334 4.35757 166.895 4.35757 149.083V77.8847L0.913855 63.6893C-3.28621 46.3762 7.38971 28.9473 24.7592 24.7609L123.712 0.910892C141.082 -3.27555 158.567 7.36574 162.767 24.6789L166.663 40.7353L27.1827 74.3532ZM125.938 10.086L124.799 10.3605L144.826 36.2868L155.232 33.7788L153.562 26.8975C150.592 14.6516 138.224 7.12484 125.938 10.086ZM87.5884 19.3292L101.288 16.0271L121.315 41.9535L107.493 45.2849L107.584 45.2152L87.5884 19.3292ZM64.0775 24.9958L84.1042 50.9222L70.145 54.2867L50.1182 28.3603L64.0775 24.9958ZM26.6231 34.0475L46.6341 59.9534L31.4434 63.6147L31.4881 63.5803L14.6027 41.7207C17.5888 38.053 21.7365 35.2771 26.6647 34.0156L26.6231 34.0475ZM11.7736 68.2919L11.815 68.3456L11.7882 68.352L11.7736 68.2919Z" fill="#002ED1" fill-opacity="0.49"/>
<path d="M132.954 113.267C133.239 113.545 133.467 113.86 133.638 114.196C131.285 115.033 129.014 116.042 126.839 117.208L123.641 114.088L119.336 118.368C117.948 119.748 115.699 119.745 114.314 118.361C112.929 116.977 112.932 114.736 114.32 113.355L118.564 109.136L114.28 104.956C112.878 103.589 112.854 101.348 114.226 99.9506C115.598 98.5534 117.846 98.5292 119.248 99.8966L123.593 104.135L127.897 99.8554C129.286 98.4747 131.534 98.4774 132.92 99.8615C134.305 101.246 134.302 103.487 132.913 104.868L128.669 109.087L132.954 113.267Z" fill="#002ED1" fill-opacity="0.49"/>
<path d="M61.4006 149.226C73.0743 137.435 90.5326 135.552 104.08 142.729C102.998 145.466 102.154 148.322 101.572 151.273C91.0941 144.79 76.9062 145.883 67.5797 155.304L64.646 158.267C62.9622 159.968 60.214 159.986 58.5077 158.308C56.8014 156.63 56.7832 153.89 58.467 152.19L61.4006 149.226Z" fill="#002ED1" fill-opacity="0.49"/>
<path d="M57.9469 98.2882C59.3321 99.6723 59.3294 101.914 57.9408 103.294L53.6968 107.514L57.9811 111.693C59.3828 113.061 59.407 115.302 58.0352 116.699C56.6633 118.096 54.4149 118.121 53.0131 116.753L48.668 112.514L44.3638 116.794C42.9752 118.175 40.7266 118.172 39.3415 116.788C37.9563 115.404 37.959 113.163 39.3476 111.782L43.5915 107.562L39.3073 103.383C37.9056 102.016 37.8814 99.7745 39.2532 98.3773C40.6251 96.9801 42.8735 96.956 44.2753 98.3234L48.6203 102.562L52.9246 98.2821C54.3132 96.9014 56.5617 96.9042 57.9469 98.2882Z" fill="#002ED1" fill-opacity="0.49"/>
<path d="M137.88 139.755C139.992 138.902 142.254 138.463 144.537 138.463C146.498 138.463 148.088 140.048 148.088 142.003C148.088 143.958 146.498 145.543 144.537 145.543C143.166 145.543 141.81 145.806 140.548 146.316C139.286 146.826 138.144 147.572 137.185 148.507C136.227 149.442 135.471 150.548 134.957 151.759C134.442 152.97 134.179 154.266 134.179 155.572C134.179 157.527 132.589 159.112 130.627 159.112C128.666 159.112 127.076 157.527 127.076 155.572C127.076 153.315 127.532 151.081 128.416 149C129.299 146.919 130.592 145.033 132.217 143.448C133.842 141.863 135.767 140.609 137.88 139.755Z" fill="#002ED1" fill-opacity="0.49"/>
<path fill-rule="evenodd" clip-rule="evenodd" d="M144.537 119.191C124.094 119.191 107.346 135.384 107.346 155.572C107.346 175.76 124.094 191.954 144.537 191.954C153.313 191.954 161.408 188.969 167.79 183.965C168.004 184.744 168.423 185.478 169.043 186.084L182.953 199.653C184.822 201.477 187.82 201.444 189.649 199.582C191.478 197.719 191.446 194.73 189.577 192.907L175.668 179.338C175.09 178.775 174.405 178.389 173.68 178.179C178.713 171.983 181.727 164.137 181.727 155.572C181.727 135.384 164.98 119.191 144.537 119.191ZM116.817 155.572C116.817 140.788 129.131 128.63 144.537 128.63C159.943 128.63 172.257 140.788 172.257 155.572C172.257 170.357 159.943 182.514 144.537 182.514C129.131 182.514 116.817 170.357 116.817 155.572Z" fill="#002ED1" fill-opacity="0.49"/>
</svg>
