<svg width="191" height="201" viewBox="0 0 191 201" fill="none" xmlns="http://www.w3.org/2000/svg">
<path fill-rule="evenodd" clip-rule="evenodd" d="M27.5404 74.3532H170.481V115.728C167.488 114.368 164.336 113.297 161.06 112.553V83.7927H14.2554V149.083C14.2554 161.681 24.4483 171.895 37.022 171.895H101.837C102.58 175.177 103.649 178.335 105.006 181.334H37.022C19.2455 181.334 4.83476 166.895 4.83476 149.083V77.8847L1.40907 63.6893C-2.769 46.3762 7.85102 28.9473 25.1296 24.7609L123.565 0.910892C140.843 -3.27555 158.237 7.36574 162.415 24.6789L166.29 40.7353L27.5404 74.3532ZM125.779 10.086L124.646 10.3605L144.568 36.2868L154.919 33.7788L153.258 26.8975C150.303 14.6516 138 7.12484 125.779 10.086ZM87.6298 19.3292L101.258 16.0271L121.18 41.9535L107.43 45.2849L107.521 45.2152L87.6298 19.3292ZM64.242 24.9958L84.1639 50.9222L70.2777 54.2867L50.3558 28.3603L64.242 24.9958ZM26.9837 34.0475L46.8899 59.9534L29.5424 64.1565L13.6978 43.5364C16.7035 38.9745 21.3428 35.4778 27.0251 34.0155L26.9837 34.0475Z" fill="#002ED1" fill-opacity="0.49"/>
<path d="M77.3943 108.444L104.32 121.934C109.18 124.369 109.18 131.319 104.32 133.754L77.3943 147.243C72.4615 149.715 66.6577 146.121 66.6577 140.595V115.093C66.6577 109.567 72.4615 105.973 77.3943 108.444Z" fill="#002ED1" fill-opacity="0.49"/>
<path d="M137.658 139.755C139.759 138.902 142.009 138.463 144.28 138.463C146.231 138.463 147.813 140.048 147.813 142.003C147.813 143.958 146.231 145.543 144.28 145.543C142.916 145.543 141.568 145.806 140.312 146.316C139.057 146.826 137.921 147.572 136.967 148.507C136.014 149.442 135.262 150.548 134.75 151.759C134.238 152.97 133.976 154.266 133.976 155.572C133.976 157.527 132.394 159.112 130.443 159.112C128.492 159.112 126.911 157.527 126.911 155.572C126.911 153.315 127.364 151.081 128.243 149C129.122 146.919 130.409 145.033 132.025 143.448C133.641 141.863 135.556 140.609 137.658 139.755Z" fill="#002ED1" fill-opacity="0.49"/>
<path fill-rule="evenodd" clip-rule="evenodd" d="M144.28 119.191C123.944 119.191 107.284 135.384 107.284 155.572C107.284 175.76 123.944 191.954 144.28 191.954C153.01 191.954 161.063 188.969 167.411 183.965C167.625 184.744 168.041 185.478 168.658 186.084L182.495 199.653C184.354 201.477 187.336 201.444 189.156 199.582C190.976 197.719 190.944 194.73 189.084 192.907L175.248 179.338C174.674 178.775 173.992 178.389 173.271 178.179C178.277 171.983 181.276 164.137 181.276 155.572C181.276 135.384 164.616 119.191 144.28 119.191ZM116.705 155.572C116.705 140.788 128.955 128.63 144.28 128.63C159.605 128.63 171.855 140.788 171.855 155.572C171.855 170.357 159.605 182.514 144.28 182.514C128.955 182.514 116.705 170.357 116.705 155.572Z" fill="#002ED1" fill-opacity="0.49"/>
</svg>
